<svg width="44" height="44" viewBox="0 0 44 44" fill="none" xmlns="http://www.w3.org/2000/svg">
<path d="M6 42H38C40.209 42 42 40.209 42 38V6C42 3.791 40.209 2 38 2H6C3.791 2 2 3.791 2 6V38C2 40.209 3.791 42 6 42Z" stroke="#282525" stroke-width="2.5" stroke-miterlimit="10" stroke-linecap="round" stroke-linejoin="round"/>
<path d="M8 17H14V30.135V36H8V17Z" stroke="#282525" stroke-width="2.5" stroke-miterlimit="10" stroke-linecap="round" stroke-linejoin="round"/>
<path d="M11 13.9922C9.2 13.9922 8 12.8592 8 11.4592C8 10.0592 9.2 8.99219 11 8.99219C12.8 8.99219 13.925 10.0592 14 11.4592C14 12.8592 12.875 13.9922 11 13.9922Z" stroke="#282525" stroke-width="2.5" stroke-miterlimit="10" stroke-linecap="round" stroke-linejoin="round"/>
<path d="M36 36H30C30 36 30 26.743 30 26C30 24 29 22 26.5 21.957C24.022 21.913 23 24 23 26C23 26.909 23 36 23 36H17V17H23V19.561C23 19.561 24.93 17 28.813 17C32.778 17 36 19.726 36 25.261V36Z" stroke="#282525" stroke-width="2.5" stroke-miterlimit="10" stroke-linecap="round" stroke-linejoin="round"/>
</svg>
