<svg width="26" height="26" viewBox="0 0 26 26" fill="none" xmlns="http://www.w3.org/2000/svg">
<path d="M5.7667 15.3625H15.3334V13.6125H5.7667V15.3625ZM5.7667 11.3375H20.2334V9.5875H5.7667V11.3375ZM5.7667 7.34167H20.2334V5.59167H5.7667V7.34167ZM0.866699 25.2792V2.82083C0.866699 2.27639 1.08059 1.78542 1.50837 1.34792C1.93614 0.910416 2.43198 0.691666 2.99587 0.691666H23.0042C23.5486 0.691666 24.0396 0.910416 24.4771 1.34792C24.9146 1.78542 25.1334 2.27639 25.1334 2.82083V18.1042C25.1334 18.6486 24.9146 19.1396 24.4771 19.5771C24.0396 20.0146 23.5486 20.2333 23.0042 20.2333H5.91253L0.866699 25.2792ZM2.99587 20.1167L5.03753 18.1042H23.0042V2.82083H2.99587V20.1167ZM2.99587 2.82083V18.1042V20.1167V2.82083Z" fill="#FDFDFD"/>
</svg>
