<svg width="28" height="21" viewBox="0 0 28 21" fill="none" xmlns="http://www.w3.org/2000/svg">
<path d="M0.262695 20.2083V17.0292C0.262695 16.2708 0.442556 15.5951 0.802279 15.0021C1.162 14.409 1.68214 13.9667 2.3627 13.675C3.82103 13.0333 5.14811 12.5667 6.34395 12.275C7.53978 11.9833 8.76964 11.8375 10.0335 11.8375C11.2974 11.8375 12.5224 11.9833 13.7085 12.275C14.8946 12.5667 16.2169 13.0333 17.6752 13.675C18.3363 13.9667 18.8564 14.409 19.2356 15.0021C19.6148 15.5951 19.8044 16.2708 19.8044 17.0292V20.2083H0.262695ZM18.2294 11.6917C19.6877 11.8667 21.0585 12.1146 22.3419 12.4354C23.6252 12.7563 24.6849 13.1306 25.521 13.5583C26.221 13.9667 26.7703 14.4625 27.1689 15.0458C27.5676 15.6292 27.7669 16.2708 27.7669 16.9708V20.2083H21.6419V16.9708C21.6419 15.7653 21.3356 14.725 20.7231 13.85C20.1106 12.975 19.2794 12.2556 18.2294 11.6917ZM10.0335 9.85417C8.61408 9.85417 7.462 9.41181 6.57728 8.52708C5.69256 7.64236 5.2502 6.49028 5.2502 5.07083C5.2502 3.67083 5.69256 2.52361 6.57728 1.62917C7.462 0.734722 8.61408 0.2875 10.0335 0.2875C11.4335 0.2875 12.5808 0.734722 13.4752 1.62917C14.3696 2.52361 14.8169 3.67083 14.8169 5.07083C14.8169 6.49028 14.3696 7.64236 13.4752 8.52708C12.5808 9.41181 11.4335 9.85417 10.0335 9.85417ZM21.7585 5.07083C21.7585 6.49028 21.3113 7.64236 20.4169 8.52708C19.5224 9.41181 18.3752 9.85417 16.9752 9.85417C16.703 9.85417 16.3967 9.83472 16.0564 9.79583C15.7162 9.75694 15.4196 9.68889 15.1669 9.59167C15.653 9.04722 16.0176 8.39097 16.2606 7.62292C16.5037 6.85486 16.6252 6.00417 16.6252 5.07083C16.6252 4.1375 16.5037 3.31111 16.2606 2.59167C16.0176 1.87222 15.653 1.19167 15.1669 0.550001C15.4391 0.472223 15.7405 0.409028 16.071 0.360417C16.4016 0.311806 16.703 0.2875 16.9752 0.2875C18.3752 0.2875 19.5224 0.734722 20.4169 1.62917C21.3113 2.52361 21.7585 3.67083 21.7585 5.07083ZM2.39186 18.0792H17.6752V17.0292C17.6752 16.7181 17.5926 16.4264 17.4273 16.1542C17.262 15.8819 17.0627 15.6972 16.8294 15.6C15.3905 14.9778 14.1752 14.55 13.1835 14.3167C12.1919 14.0833 11.1419 13.9667 10.0335 13.9667C8.90575 13.9667 7.84117 14.0833 6.83978 14.3167C5.83839 14.55 4.62797 14.9778 3.20853 15.6C2.9752 15.6972 2.78075 15.8819 2.6252 16.1542C2.46964 16.4264 2.39186 16.7181 2.39186 17.0292V18.0792ZM10.0335 7.725C10.7919 7.725 11.4238 7.47708 11.9294 6.98125C12.4349 6.48542 12.6877 5.84861 12.6877 5.07083C12.6877 4.3125 12.4349 3.68056 11.9294 3.175C11.4238 2.66945 10.7821 2.41667 10.0044 2.41667C9.24603 2.41667 8.61895 2.66945 8.12311 3.175C7.62728 3.68056 7.37936 4.32222 7.37936 5.1C7.37936 5.85833 7.62728 6.48542 8.12311 6.98125C8.61895 7.47708 9.25575 7.725 10.0335 7.725Z" fill="#FDFDFD"/>
</svg>
