<svg
                width="2.5"
                height="5.5"
                viewBox="0 0 20 27"
                fill="none"
                xmlns="http://www.w3.org/2000/svg"
              >
                <path
                  d="M10 16.2355C8.97619 16.2355 8.11905 15.8684 7.42857 15.1342C6.7381 14.4 6.39286 13.5118 6.39286 12.4697V3.55263C6.39286 2.55789 6.74405 1.71711 7.44643 1.03026C8.14881 0.343421 9 0 10 0C11 0 11.8512 0.343421 12.5536 1.03026C13.256 1.71711 13.6071 2.55789 13.6071 3.55263V12.4697C13.6071 13.5118 13.2619 14.4 12.5714 15.1342C11.881 15.8684 11.0238 16.2355 10 16.2355ZM8.92857 27V22.1684C6.40476 21.9079 4.28571 20.8539 2.57143 19.0066C0.857143 17.1592 0 14.9803 0 12.4697H2.14286C2.14286 14.625 2.91071 16.4368 4.44643 17.9053C5.98214 19.3737 7.83333 20.1079 10 20.1079C12.1667 20.1079 14.0179 19.3737 15.5536 17.9053C17.0893 16.4368 17.8571 14.625 17.8571 12.4697H20C20 14.9803 19.1429 17.1592 17.4286 19.0066C15.7143 20.8539 13.5952 21.9079 11.0714 22.1684V27H8.92857ZM10 14.1039C10.4286 14.1039 10.7798 13.9441 11.0536 13.6243C11.3274 13.3046 11.4643 12.9197 11.4643 12.4697V3.55263C11.4643 3.15 11.3214 2.8125 11.0357 2.54013C10.75 2.26776 10.4048 2.13158 10 2.13158C9.59524 2.13158 9.25 2.26776 8.96429 2.54013C8.67857 2.8125 8.53572 3.15 8.53572 3.55263V12.4697C8.53572 12.9197 8.67262 13.3046 8.94643 13.6243C9.22024 13.9441 9.57143 14.1039 10 14.1039Z"
                  fill="#282525"
                />
              </svg>