<svg width="32" height="29" viewBox="0 0 32 29" fill="none" xmlns="http://www.w3.org/2000/svg">
<rect width="32" height="29" fill="#E5E5E5"/>
<g clip-path="url(#clip0_0_1)">
<rect width="1920" height="1080" transform="translate(-1691 -65)" fill="white"/>
<g opacity="0.5" filter="url(#filter0_f_0_1)">
<path d="M36.8433 25.24C127.143 85.44 190.353 181.76 253.563 282.595C315.268 381.925 378.478 484.265 392.023 595.635C405.568 707.005 370.953 825.9 307.743 923.725C243.028 1021.55 149.718 1099.81 47.3783 1155.49C-56.4667 1212.68 -169.342 1248.8 -280.712 1245.79C-392.082 1244.29 -503.452 1203.65 -592.247 1138.94C-681.042 1074.22 -750.272 985.43 -796.927 890.615C-845.087 794.295 -872.177 691.955 -881.207 583.595C-890.237 475.235 -881.207 360.855 -827.027 276.575C-772.847 193.8 -672.012 139.62 -574.187 83.935C-476.362 29.755 -378.537 -25.93 -273.187 -42.485C-166.332 -57.535 -51.9517 -34.96 36.8433 25.24Z" fill="url(#paint0_linear_0_1)"/>
</g>
<rect opacity="0.05" width="32" height="29" rx="5" fill="#5E369E"/>
<rect opacity="0.05" width="32" height="29" rx="5" fill="#5E369E"/>
<path d="M23.0722 19.4454L22.9117 19.3038C22.4562 18.8979 22.0575 18.4325 21.7264 17.9201C21.3648 17.213 21.148 16.4408 21.0889 15.6488V13.316C21.092 12.072 20.6408 10.8696 19.8199 9.93485C18.9991 9.00008 17.8651 8.39724 16.6311 8.23958V7.63042C16.6311 7.46322 16.5647 7.30287 16.4465 7.18464C16.3282 7.06642 16.1679 7 16.0007 7C15.8335 7 15.6731 7.06642 15.5549 7.18464C15.4367 7.30287 15.3703 7.46322 15.3703 7.63042V8.24903C14.1473 8.41805 13.0271 9.02454 12.217 9.95616C11.407 10.8878 10.962 12.0814 10.9644 13.316V15.6488C10.9053 16.4408 10.6886 17.213 10.3269 17.9201C10.0015 18.4312 9.60926 18.8966 9.16056 19.3038L9 19.4454V20.7771H23.0722V19.4454Z" fill="white"/>
<path d="M15.2344 20.1111C15.2758 20.4104 15.4241 20.6847 15.652 20.8831C15.8798 21.0816 16.1718 21.191 16.474 21.191C16.7761 21.191 17.0681 21.0816 17.296 20.8831C17.5238 20.6847 17.6721 20.4104 17.7135 20.1111H15.2344Z" fill="white"/>
</g>
<defs>
<filter id="filter0_f_0_1" x="-1134.26" y="-297" width="1779.19" height="1792.97" filterUnits="userSpaceOnUse" color-interpolation-filters="sRGB">
<feFlood flood-opacity="0" result="BackgroundImageFix"/>
<feBlend mode="normal" in="SourceGraphic" in2="BackgroundImageFix" result="shape"/>
<feGaussianBlur stdDeviation="125" result="effect1_foregroundBlur_0_1"/>
</filter>
<linearGradient id="paint0_linear_0_1" x1="-884.257" y1="1245.97" x2="408.638" y2="-33.1516" gradientUnits="userSpaceOnUse">
<stop stop-color="#2B3CDA"/>
<stop offset="1" stop-color="#A137C7"/>
</linearGradient>
<clipPath id="clip0_0_1">
<rect width="1920" height="1080" fill="white" transform="translate(-1691 -65)"/>
</clipPath>
</defs>
</svg>
