<svg width="20" height="27" viewBox="0 0 20 27" fill="none" xmlns="http://www.w3.org/2000/svg">
<path d="M9.99984 0.49585C11.6526 0.49585 13.0575 1.07432 14.2144 2.23127C15.3714 3.38821 15.9498 4.80279 15.9498 6.47502V9.27502H17.6415C18.2443 9.27502 18.7498 9.47918 19.1582 9.88752C19.5665 10.2958 19.7707 10.8014 19.7707 11.4042V24.1792C19.7707 24.782 19.5665 25.2875 19.1582 25.6958C18.7498 26.1042 18.2443 26.3083 17.6415 26.3083H2.35817C1.75539 26.3083 1.24984 26.1042 0.841504 25.6958C0.433171 25.2875 0.229004 24.782 0.229004 24.1792V11.4042C0.229004 10.8014 0.433171 10.2958 0.841504 9.88752C1.24984 9.47918 1.75539 9.27502 2.35817 9.27502H4.04984V6.47502C4.04984 4.80279 4.62831 3.38821 5.78525 2.23127C6.9422 1.07432 8.34706 0.49585 9.99984 0.49585ZM9.99984 2.62502C8.93039 2.62502 8.02623 2.99932 7.28734 3.74793C6.54845 4.49654 6.179 5.40557 6.179 6.47502V9.27502H13.8207V6.47502C13.8207 5.40557 13.4512 4.49654 12.7123 3.74793C11.9734 2.99932 11.0693 2.62502 9.99984 2.62502ZM2.35817 24.1792H17.6415V11.4042H2.35817V24.1792ZM9.99984 15.3708C9.31928 15.3708 8.74081 15.6285 8.26442 16.1438C7.78803 16.659 7.54984 17.2472 7.54984 17.9083C7.54984 18.55 7.78803 19.1042 8.26442 19.5708C8.74081 20.0375 9.31928 20.2708 9.99984 20.2708C10.6804 20.2708 11.2589 20.0375 11.7353 19.5708C12.2116 19.1042 12.4498 18.5403 12.4498 17.8792C12.4498 17.2375 12.2116 16.659 11.7353 16.1438C11.2589 15.6285 10.6804 15.3708 9.99984 15.3708ZM2.35817 11.4042V24.1792V11.4042Z" fill="#FDFDFD"/>
</svg>
