<svg width="26" height="26" viewBox="0 0 26 26" fill="none" xmlns="http://www.w3.org/2000/svg">
<path d="M9.99596 25.1334L9.38346 21.3417C9.07235 21.225 8.72721 21.0646 8.34805 20.8604C7.96888 20.6563 7.64319 20.4375 7.37096 20.2042L3.81263 21.8084L0.779297 16.3834L3.95846 14.0209C3.93902 13.8847 3.92444 13.7097 3.91471 13.4959C3.90499 13.282 3.90013 13.0972 3.90013 12.9417C3.90013 12.8056 3.90499 12.6354 3.91471 12.4313C3.92444 12.2271 3.93902 12.0472 3.95846 11.8917L0.779297 9.55836L3.81263 4.16252L7.31263 5.76669C7.58485 5.5528 7.91541 5.33405 8.3043 5.11044C8.69319 4.88683 9.05291 4.71669 9.38346 4.60002L9.99596 0.837524H16.0335L16.6168 4.60002C16.9474 4.71669 17.3119 4.88683 17.7105 5.11044C18.1092 5.33405 18.4349 5.5528 18.6876 5.76669L22.2168 4.16252L25.2501 9.55836L22.0126 11.8625C22.0321 12.0375 22.0515 12.232 22.071 12.4459C22.0904 12.6597 22.1001 12.8445 22.1001 13C22.1001 13.1556 22.0904 13.3354 22.071 13.5396C22.0515 13.7438 22.0418 13.9236 22.0418 14.0792L25.221 16.3834L22.1876 21.8084L18.6293 20.2042C18.3571 20.4181 18.0362 20.6368 17.6668 20.8604C17.2974 21.084 16.9571 21.2445 16.646 21.3417L16.0335 25.1334H9.99596ZM12.971 17.1709C14.1376 17.1709 15.1293 16.7625 15.946 15.9459C16.7626 15.1292 17.171 14.1375 17.171 12.9709C17.171 11.8042 16.7626 10.8125 15.946 9.99586C15.1293 9.17919 14.1376 8.77086 12.971 8.77086C11.8043 8.77086 10.8126 9.17919 9.99596 9.99586C9.1793 10.8125 8.77096 11.8042 8.77096 12.9709C8.77096 14.1375 9.1793 15.1292 9.99596 15.9459C10.8126 16.7625 11.8043 17.1709 12.971 17.1709ZM12.9418 15.0417C12.3779 15.0417 11.8967 14.8375 11.498 14.4292C11.0994 14.0209 10.9001 13.5347 10.9001 12.9709C10.9001 12.3875 11.0994 11.8966 11.498 11.4979C11.8967 11.0993 12.3876 10.9 12.971 10.9C13.5349 10.9 14.021 11.1042 14.4293 11.5125C14.8376 11.9209 15.0418 12.407 15.0418 12.9709C15.0418 13.5542 14.8376 14.0452 14.4293 14.4438C14.021 14.8424 13.5251 15.0417 12.9418 15.0417ZM11.7168 23.0042H14.2835L14.6918 19.7084C15.3529 19.5528 15.9751 19.3097 16.5585 18.9792C17.1418 18.6486 17.6765 18.2403 18.1626 17.7542L21.2251 19.0959L22.3918 16.9959L19.6793 14.9834C19.7571 14.6528 19.8251 14.3222 19.8835 13.9917C19.9418 13.6611 19.971 13.3209 19.971 12.9709C19.971 12.6209 19.9467 12.2854 19.898 11.9646C19.8494 11.6438 19.7862 11.3084 19.7085 10.9584L22.3918 8.97502L21.2543 6.87502L18.1626 8.18752C17.7154 7.68197 17.2001 7.24933 16.6168 6.88961C16.0335 6.52989 15.3918 6.30141 14.6918 6.20419L14.3126 2.96669H11.6876L11.3085 6.20419C10.6085 6.35975 9.96194 6.60766 9.36888 6.94794C8.77582 7.28822 8.25569 7.70141 7.80846 8.18752L4.77513 6.87502L3.5793 8.97502L6.2918 10.9875C6.21402 11.3375 6.15082 11.6729 6.10221 11.9938C6.0536 12.3146 6.0293 12.6306 6.0293 12.9417C6.0293 13.2722 6.0536 13.6028 6.10221 13.9334C6.15082 14.2639 6.21402 14.6139 6.2918 14.9834L3.5793 16.9959L4.77513 19.0959L7.83763 17.7542C8.34318 18.2597 8.88763 18.6778 9.47096 19.0084C10.0543 19.3389 10.6668 19.582 11.3085 19.7375L11.7168 23.0042Z" fill="#FDFDFD"/>
</svg>
