<svg width="15" height="14" viewBox="0 0 15 14" fill="none" xmlns="http://www.w3.org/2000/svg">
<rect width="15" height="14" fill="#E5E5E5"/>
<g id="&#209;&#135;&#208;&#176;&#209;&#130;" clip-path="url(#clip0_0_1)">
<rect width="1920" height="1080" transform="translate(-1700 -72)" fill="white"/>
<g id="&#209;&#132;&#208;&#190;&#208;&#189;">
<g id="Vector" opacity="0.5" filter="url(#filter0_f_0_1)">
<path d="M27.8433 18.24C118.143 78.44 181.353 174.76 244.563 275.595C306.268 374.925 369.478 477.265 383.023 588.635C396.568 700.005 361.953 818.9 298.743 916.725C234.028 1014.55 140.718 1092.81 38.3783 1148.49C-65.4667 1205.68 -178.342 1241.8 -289.712 1238.79C-401.082 1237.29 -512.452 1196.65 -601.247 1131.94C-690.042 1067.22 -759.272 978.43 -805.927 883.615C-854.087 787.295 -881.177 684.955 -890.207 576.595C-899.237 468.235 -890.207 353.855 -836.027 269.575C-781.847 186.8 -681.012 132.62 -583.187 76.935C-485.362 22.755 -387.537 -32.93 -282.187 -49.485C-175.332 -64.535 -60.9517 -41.96 27.8433 18.24Z" fill="url(#paint0_linear_0_1)"/>
</g>
</g>
<g id="Group 210">
<rect id="Rectangle 7" opacity="0.05" x="-9" y="-7" width="32" height="29" rx="5" fill="#5E369E"/>
<g id="Group 20">
<rect id="Rectangle 8" opacity="0.05" x="-9" y="-7" width="32" height="29" rx="5" fill="#5E369E"/>
<g id="clarity:notification-solid">
<path id="Vector_2" d="M14.0722 12.4454L13.9117 12.3037C13.4562 11.8979 13.0575 11.4325 12.7264 10.9201C12.3648 10.213 12.148 9.44077 12.0889 8.64875V6.31597C12.092 5.07196 11.6408 3.86961 10.8199 2.93485C9.99905 2.00008 8.8651 1.39724 7.63111 1.23958V0.630417C7.63111 0.46322 7.56469 0.302871 7.44647 0.184645C7.32824 0.0664188 7.16789 0 7.00069 0C6.8335 0 6.67315 0.0664188 6.55492 0.184645C6.4367 0.302871 6.37028 0.46322 6.37028 0.630417V1.24903C5.14734 1.41805 4.0271 2.02454 3.21703 2.95616C2.40696 3.88779 1.96196 5.08142 1.96444 6.31597V8.64875C1.9053 9.44077 1.68856 10.213 1.32694 10.9201C1.00153 11.4312 0.609259 11.8966 0.160556 12.3037L0 12.4454V13.7771H14.0722V12.4454Z" fill="white"/>
<path id="Vector_3" d="M6.23438 13.1111C6.27578 13.4104 6.42411 13.6847 6.65195 13.8831C6.8798 14.0816 7.17178 14.191 7.47396 14.191C7.77614 14.191 8.06812 14.0816 8.29596 13.8831C8.52381 13.6847 8.67213 13.4104 8.71354 13.1111H6.23438Z" fill="white"/>
</g>
</g>
</g>
</g>
<defs>
<filter id="filter0_f_0_1" x="-1143.26" y="-304" width="1779.19" height="1792.97" filterUnits="userSpaceOnUse" color-interpolation-filters="sRGB">
<feFlood flood-opacity="0" result="BackgroundImageFix"/>
<feBlend mode="normal" in="SourceGraphic" in2="BackgroundImageFix" result="shape"/>
<feGaussianBlur stdDeviation="125" result="effect1_foregroundBlur_0_1"/>
</filter>
<linearGradient id="paint0_linear_0_1" x1="-893.257" y1="1238.97" x2="399.638" y2="-40.1516" gradientUnits="userSpaceOnUse">
<stop stop-color="#2B3CDA"/>
<stop offset="1" stop-color="#A137C7"/>
</linearGradient>
<clipPath id="clip0_0_1">
<rect width="1920" height="1080" fill="white" transform="translate(-1700 -72)"/>
</clipPath>
</defs>
</svg>
