<svg width="41" height="6" viewBox="0 0 41 6" fill="none" xmlns="http://www.w3.org/2000/svg">
<rect width="41" height="6" fill="#E5E5E5"/>
<g id="&#209;&#135;&#208;&#176;&#209;&#130;" clip-path="url(#clip0_0_1)">
<rect width="1920" height="1080" transform="translate(-1771 -76)" fill="white"/>
<g id="&#209;&#132;&#208;&#190;&#208;&#189;">
<g id="Vector" opacity="0.5" filter="url(#filter0_f_0_1)">
<path d="M-43.1567 14.24C47.1433 74.44 110.353 170.76 173.563 271.595C235.268 370.925 298.478 473.265 312.023 584.635C325.568 696.005 290.953 814.9 227.743 912.725C163.028 1010.55 69.7183 1088.81 -32.6217 1144.49C-136.467 1201.68 -249.342 1237.8 -360.712 1234.79C-472.082 1233.29 -583.452 1192.65 -672.247 1127.94C-761.042 1063.22 -830.272 974.43 -876.927 879.615C-925.087 783.295 -952.177 680.955 -961.207 572.595C-970.237 464.235 -961.207 349.855 -907.027 265.575C-852.847 182.8 -752.012 128.62 -654.187 72.935C-556.362 18.755 -458.537 -36.93 -353.187 -53.485C-246.332 -68.535 -131.952 -45.96 -43.1567 14.24Z" fill="url(#paint0_linear_0_1)"/>
</g>
</g>
<g id="header">
<g id="&#208;&#186;&#208;&#189;&#208;&#190;&#208;&#191;&#208;&#186;&#208;&#176;&#208;&#178;&#209;&#133;&#208;&#190;&#208;&#180;&#208;&#176;">
<g id="&#208;&#177;&#209;&#131;&#209;&#128;&#208;&#179;&#208;&#181;&#209;&#128;">
<path id="Vector 2" d="M3 3L38 3" stroke="#5E369E" stroke-opacity="0.5" stroke-width="5" stroke-linecap="round"/>
</g>
</g>
</g>
</g>
<defs>
<filter id="filter0_f_0_1" x="-1214.26" y="-308" width="1779.19" height="1792.97" filterUnits="userSpaceOnUse" color-interpolation-filters="sRGB">
<feFlood flood-opacity="0" result="BackgroundImageFix"/>
<feBlend mode="normal" in="SourceGraphic" in2="BackgroundImageFix" result="shape"/>
<feGaussianBlur stdDeviation="125" result="effect1_foregroundBlur_0_1"/>
</filter>
<linearGradient id="paint0_linear_0_1" x1="-964.257" y1="1234.97" x2="328.638" y2="-44.1516" gradientUnits="userSpaceOnUse">
<stop stop-color="#2B3CDA"/>
<stop offset="1" stop-color="#A137C7"/>
</linearGradient>
<clipPath id="clip0_0_1">
<rect width="1920" height="1080" fill="white" transform="translate(-1771 -76)"/>
</clipPath>
</defs>
</svg>
