<svg width="26" height="26" viewBox="0 0 26 26" fill="none" xmlns="http://www.w3.org/2000/svg">
<path d="M5.30003 19.4458C6.54448 18.5708 7.78892 17.9049 9.03337 17.4479C10.2778 16.991 11.6 16.7625 13 16.7625C14.4 16.7625 15.7223 16.991 16.9667 17.4479C18.2111 17.9049 19.475 18.5708 20.7584 19.4458C21.5945 18.3569 22.1778 17.2972 22.5084 16.2667C22.8389 15.2361 23.0042 14.1472 23.0042 13C23.0042 10.1611 22.0466 7.78403 20.1313 5.86875C18.216 3.95347 15.8389 2.99584 13 2.99584C10.1611 2.99584 7.78406 3.95347 5.86878 5.86875C3.9535 7.78403 2.99587 10.1611 2.99587 13C2.99587 14.1472 3.166 15.2361 3.50628 16.2667C3.84656 17.2972 4.44448 18.3569 5.30003 19.4458ZM13 14.225C11.775 14.225 10.7445 13.8069 9.90837 12.9708C9.07226 12.1347 8.6542 11.1042 8.6542 9.87917C8.6542 8.65417 9.07226 7.62361 9.90837 6.7875C10.7445 5.95139 11.775 5.53334 13 5.53334C14.225 5.53334 15.2556 5.95139 16.0917 6.7875C16.9278 7.62361 17.3459 8.65417 17.3459 9.87917C17.3459 11.1042 16.9278 12.1347 16.0917 12.9708C15.2556 13.8069 14.225 14.225 13 14.225ZM13 25.1333C11.3473 25.1333 9.78684 24.8125 8.31878 24.1708C6.85073 23.5292 5.56253 22.6542 4.4542 21.5458C3.34587 20.4375 2.47087 19.1493 1.8292 17.6813C1.18753 16.2132 0.866699 14.6431 0.866699 12.9708C0.866699 11.3375 1.18753 9.78681 1.8292 8.31875C2.47087 6.8507 3.34587 5.5625 4.4542 4.45417C5.56253 3.34584 6.85073 2.47084 8.31878 1.82917C9.78684 1.1875 11.357 0.866669 13.0292 0.866669C14.6625 0.866669 16.2132 1.1875 17.6813 1.82917C19.1493 2.47084 20.4375 3.34584 21.5459 4.45417C22.6542 5.5625 23.5292 6.8507 24.1709 8.31875C24.8125 9.78681 25.1334 11.3472 25.1334 13C25.1334 14.6528 24.8125 16.2132 24.1709 17.6813C23.5292 19.1493 22.6542 20.4375 21.5459 21.5458C20.4375 22.6542 19.1493 23.5292 17.6813 24.1708C16.2132 24.8125 14.6528 25.1333 13 25.1333ZM13 23.0042C14.0306 23.0042 15.0466 22.8583 16.0479 22.5667C17.0493 22.275 18.0556 21.7403 19.0667 20.9625C18.0556 20.2819 17.0396 19.7667 16.0188 19.4167C14.9979 19.0667 13.9917 18.8917 13 18.8917C12.0084 18.8917 11.0021 19.0667 9.98128 19.4167C8.96045 19.7667 7.9542 20.2819 6.96253 20.9625C7.9542 21.7403 8.95073 22.275 9.95212 22.5667C10.9535 22.8583 11.9695 23.0042 13 23.0042ZM13 12.0958C13.6417 12.0958 14.1716 11.8868 14.5896 11.4688C15.0077 11.0507 15.2167 10.5208 15.2167 9.87917C15.2167 9.2375 15.0077 8.70764 14.5896 8.28959C14.1716 7.87153 13.6417 7.6625 13 7.6625C12.3584 7.6625 11.8285 7.87153 11.4104 8.28959C10.9924 8.70764 10.7834 9.2375 10.7834 9.87917C10.7834 10.5208 10.9924 11.0507 11.4104 11.4688C11.8285 11.8868 12.3584 12.0958 13 12.0958Z" fill="#FDFDFD"/>
</svg>
