<svg width="26" height="26" viewBox="0 0 26 26" fill="none" xmlns="http://www.w3.org/2000/svg">
<path d="M4.18889 20.3306H21.8472L16.5389 13.2528L11.7722 19.4278L8.41389 14.8417L4.18889 20.3306ZM2.16667 26C1.58889 26 1.08333 25.7833 0.65 25.35C0.216667 24.9167 0 24.4111 0 23.8333V2.16667C0 1.58889 0.216667 1.08333 0.65 0.65C1.08333 0.216667 1.58889 0 2.16667 0H23.8333C24.4111 0 24.9167 0.216667 25.35 0.65C25.7833 1.08333 26 1.58889 26 2.16667V23.8333C26 24.4111 25.7833 24.9167 25.35 25.35C24.9167 25.7833 24.4111 26 23.8333 26H2.16667ZM2.16667 23.8333H23.8333V2.16667H2.16667V23.8333ZM2.16667 2.16667V23.8333V2.16667Z" fill="#282525"/>
</svg>
