<svg width="44" height="44" viewBox="0 0 44 44" fill="none" xmlns="http://www.w3.org/2000/svg">
<path d="M13.4286 42H30.5714C36.8823 42 42 36.8823 42 30.5714V13.4286C42 7.11657 36.8823 2 30.5714 2H13.4286C7.11657 2 2 7.11657 2 13.4286V30.5714C2 36.8823 7.11657 42 13.4286 42Z" stroke="#282525" stroke-width="2.5" stroke-miterlimit="10"/>
<path d="M22.0009 12.293C16.6363 12.293 12.2866 16.6427 12.2866 22.0073C12.2866 27.3718 16.6363 31.7215 22.0009 31.7215C27.3655 31.7215 31.7152 27.3718 31.7152 22.0073C31.7152 16.6427 27.3655 12.293 22.0009 12.293Z" stroke="#282525" stroke-width="2.5" stroke-miterlimit="10"/>
<path d="M33.4283 8.28906C32.1654 8.28906 31.1426 9.31192 31.1426 10.5748C31.1426 11.8376 32.1654 12.8605 33.4283 12.8605C34.6911 12.8605 35.714 11.8376 35.714 10.5748C35.714 9.31192 34.6911 8.28906 33.4283 8.28906Z" fill="black"/>
</svg>
