 <svg
                width="8"
                height="13"
                viewBox="0 0 29 29"
                fill="none"
                xmlns="http://www.w3.org/2000/svg"
              >
                <path
                  d="M19.7925 12.5788C20.3483 12.5788 20.8135 12.3915 21.1881 12.0169C21.5627 11.6423 21.75 11.1771 21.75 10.6213C21.75 10.0654 21.5627 9.60021 21.1881 9.22563C20.8135 8.85104 20.3483 8.66375 19.7925 8.66375C19.2367 8.66375 18.7715 8.85104 18.3969 9.22563C18.0223 9.60021 17.835 10.0654 17.835 10.6213C17.835 11.1771 18.0223 11.6423 18.3969 12.0169C18.7715 12.3915 19.2367 12.5788 19.7925 12.5788ZM9.2075 12.5788C9.76333 12.5788 10.2285 12.3915 10.6031 12.0169C10.9777 11.6423 11.165 11.1771 11.165 10.6213C11.165 10.0654 10.9777 9.60021 10.6031 9.22563C10.2285 8.85104 9.76333 8.66375 9.2075 8.66375C8.65167 8.66375 8.18646 8.85104 7.81187 9.22563C7.43729 9.60021 7.25 10.0654 7.25 10.6213C7.25 11.1771 7.43729 11.6423 7.81187 12.0169C8.18646 12.3915 8.65167 12.5788 9.2075 12.5788ZM14.5 22.4388C16.095 22.4388 17.5631 22.0098 18.9044 21.1519C20.2456 20.294 21.2183 19.1279 21.8225 17.6538H7.1775C7.80583 19.1279 8.78458 20.294 10.1138 21.1519C11.4429 22.0098 12.905 22.4388 14.5 22.4388ZM14.5 29C12.5183 29 10.6454 28.6194 8.88125 27.8581C7.11708 27.0969 5.57646 26.0577 4.25938 24.7406C2.94229 23.4235 1.90312 21.8829 1.14187 20.1188C0.380625 18.3546 0 16.4696 0 14.4638C0 12.4821 0.380625 10.6092 1.14187 8.845C1.90312 7.08083 2.94229 5.54625 4.25938 4.24125C5.57646 2.93625 7.11708 1.90312 8.88125 1.14187C10.6454 0.380625 12.5304 0 14.5363 0C16.5179 0 18.3908 0.380625 20.155 1.14187C21.9192 1.90312 23.4538 2.93625 24.7588 4.24125C26.0638 5.54625 27.0969 7.08083 27.8581 8.845C28.6194 10.6092 29 12.4942 29 14.5C29 16.4817 28.6194 18.3546 27.8581 20.1188C27.0969 21.8829 26.0638 23.4235 24.7588 24.7406C23.4538 26.0577 21.9192 27.0969 20.155 27.8581C18.3908 28.6194 16.5058 29 14.5 29ZM14.5 26.825C17.9317 26.825 20.8438 25.6227 23.2362 23.2181C25.6287 20.8135 26.825 17.9075 26.825 14.5C26.825 11.0683 25.6287 8.15625 23.2362 5.76375C20.8438 3.37125 17.9317 2.175 14.5 2.175C11.0925 2.175 8.18646 3.37125 5.78188 5.76375C3.37729 8.15625 2.175 11.0683 2.175 14.5C2.175 17.9075 3.37729 20.8135 5.78188 23.2181C8.18646 25.6227 11.0925 26.825 14.5 26.825Z"
                  fill="#282525"
                />
              </svg>