<svg width="44" height="36" viewBox="0 0 44 36" fill="none" xmlns="http://www.w3.org/2000/svg">
<path d="M42 5.78825C40.5266 6.43139 38.9466 6.8637 37.2849 7.0614C38.9808 6.0606 40.2825 4.47656 40.895 2.59227C39.3091 3.51678 37.5507 4.18944 35.6824 4.55121C34.1865 2.97947 32.054 2 29.6939 2C25.1605 2 21.4862 5.61681 21.4862 10.0777C21.4862 10.7102 21.5596 11.3263 21.7004 11.9185C14.8803 11.5806 8.83264 8.36489 4.78422 3.4774C4.07754 4.67343 3.6742 6.0606 3.6742 7.54047C3.6742 10.3427 5.12007 12.8143 7.32428 14.2647C5.97758 14.2228 4.71422 13.8586 3.60753 13.2532C3.60753 13.2877 3.60753 13.3205 3.60753 13.3557C3.60753 17.2711 6.43593 20.5319 10.1877 21.2776C9.50099 21.4638 8.77597 21.5614 8.02763 21.5614C7.49761 21.5614 6.98344 21.5106 6.48093 21.4154C7.52845 24.6221 10.5577 26.9616 14.1486 27.0264C11.3419 29.1929 7.80345 30.4825 3.95671 30.4825C3.29253 30.4825 2.64085 30.4464 2 30.3701C5.63008 32.6629 9.94517 34 14.5794 34C29.6747 34 37.9316 21.6894 37.9316 11.0178C37.9316 10.6659 37.9224 10.3156 37.9074 9.9719C39.5099 8.83247 40.9008 7.40839 42 5.78825Z" stroke="#282525" stroke-width="2.5" stroke-miterlimit="10" stroke-linecap="round" stroke-linejoin="round"/>
</svg>
