<svg width="20" height="20" viewBox="0 0 44 44" fill="none" xmlns="http://www.w3.org/2000/svg">
<path d="M16.6376 12.9291C16.2021 11.8955 15.7594 12.0355 15.4294 12.0191C15.1167 12.0045 14.7594 12 14.4012 12C14.0431 12 13.4622 12.1327 12.9694 12.6636C12.4767 13.1945 11.0903 14.4764 11.0903 17.0855C11.0903 19.6945 13.014 22.2136 13.2822 22.5682C13.5512 22.9218 17.0676 28.2755 22.4521 30.5718C23.7331 31.1173 24.7331 31.4436 25.5121 31.6882C26.7976 32.0918 27.9685 32.0345 28.894 31.8982C29.9249 31.7464 32.0703 30.6155 32.5176 29.3782C32.9649 28.14 32.9649 27.0791 32.8303 26.8582C32.6958 26.6373 32.3376 26.5045 31.8012 26.2391C31.2649 25.9736 28.6249 24.6909 28.1321 24.5155C27.6394 24.3382 27.2821 24.25 26.924 24.7809C26.5658 25.3118 25.5376 26.5045 25.2249 26.8591C24.9121 27.2127 24.5985 27.2573 24.0621 26.9918C23.5258 26.7264 21.7949 26.1673 19.7458 24.3609C18.1494 22.9555 17.0721 21.22 16.7594 20.6891C16.4467 20.1582 16.7258 19.8718 16.9949 19.6073C17.2367 19.3691 17.5312 18.9882 17.8003 18.6782C18.0694 18.3682 18.1585 18.1473 18.3367 17.7936C18.5149 17.44 18.4258 17.13 18.2912 16.8645C18.1585 16.5991 17.0849 13.9909 16.6376 12.9291Z" stroke="#282525" stroke-width="2.5" stroke-miterlimit="10"/>
<path d="M22 2C10.9545 2 2 10.9545 2 22C2 25.7018 3.01 29.1673 4.76364 32.1409L2 42L12.2491 39.4609C15.1345 41.0755 18.4582 42 22 42C33.0455 42 42 33.0455 42 22C42 10.9545 33.0455 2 22 2Z" stroke="#282525" stroke-width="2.5" stroke-miterlimit="10" stroke-linejoin="round"/>
</svg>
